:FULLY-SPECIFIED
:FORCE-ALL-JOINTS-BE-3DOF
:DEGREES
883
root 3.80308 16.4758 30.5337 -7.86834 19.9014 359.701
lfemur -19.5264 16.1143 -17.9899
ltibia 42.1775 0 0
lfoot -10.2883 -13.1428 0
ltoes 16.5344 0 0
rfemur -42.4824 -6.66116 1.72903
rtibia 69.9921 0 0
rfoot 6.76705 -11.7687 0
rtoes 18.8631 0 0
lowerback 8.25322 -1.82471 -3.89324
upperback 2.26914 -2.78666 -1.63214
thorax -2.14571 -1.37538 0.759032
lowerneck -6.71992 -5.04055 0.207862
upperneck 6.26163 -7.07899 4.10425
head 3.40596 -3.33435 0.94427
lclavicle 1.65565e-14 -4.2473e-15 0
lhumerus -44.2577 -29.9537 95.8303
lradius 58.2496 0 0
lwrist 17.7075 0 0
lhand 19.0084 10.8026 0
lfingers 7.12502 0 0
lthumb 43.4646 33.7128 0
rclavicle 1.65565e-14 -4.2473e-15 0
rhumerus -47.3926 6.68818 -74.313
rradius 84.0296 0 0
rwrist -4.11659 0 0
rhand 0.581163 -16.8878 0
rfingers 7.12502 0 0
rthumb 26.0812 -764.451 0
884
root 3.78971 16.4678 30.6266 -7.35877 20.0401 359.756
lfemur -20.0057 16.8305 -17.899
ltibia 42.7357 0 0
lfoot -10.6876 -12.1864 0
ltoes 16.0541 0 0
rfemur -41.3061 -7.06784 1.51111
rtibia 70.6625 0 0
rfoot 6.64361 -12.5739 0
rtoes 20.3649 0 0
lowerback 7.92724 -1.85444 -3.85895
upperback 2.13349 -2.81299 -1.67369
thorax -2.10882 -1.38816 0.690234
lowerneck -6.74161 -5.15881 0.0548624
upperneck 6.12958 -7.22269 4.17128
head 3.37712 -3.40906 0.985529
lclavicle 1.62867e-14 -3.20274e-15 0
lhumerus -44.8013 -30.5529 96.8941
lradius 58.4528 0 0
lwrist 17.3482 0 0
lhand 19.8471 11.2574 0
lfingers 7.12502 0 0
lthumb 44.2459 33.8703 0
rclavicle 1.62867e-14 -3.20274e-15 0
rhumerus -47.2223 7.12653 -75.7755
rradius 86.2867 0 0
rwrist -4.47985 0 0
rhand 1.55886 -15.9927 0
rfingers 7.12502 0 0
rthumb 27.0164 -763.413 0
885
root 3.77644 16.46 30.7188 -6.85284 20.1778 359.81
lfemur -20.4816 17.5415 -17.8087
ltibia 43.2899 0 0
lfoot -11.084 -11.2368 0
ltoes 15.5771 0 0
rfemur -40.1382 -7.47162 1.29474
rtibia 71.3282 0 0
rfoot 6.52105 -13.3734 0
rtoes 21.856 0 0
lowerback 7.6036 -1.88396 -3.82491
upperback 1.99882 -2.83913 -1.71494
thorax -2.0722 -1.40086 0.621928
lowerneck -6.76315 -5.27621 -0.0970426
upperneck 5.99847 -7.36536 4.23783
head 3.3485 -3.48324 1.02649
lclavicle 1.60189e-14 -2.16566e-15 0
lhumerus -45.3411 -31.1478 97.9504
lradius 58.6545 0 0
lwrist 16.9914 0 0
lhand 20.6798 11.7089 0
lfingers 7.12502 0 0
lthumb 45.0217 34.0267 0
rclavicle 1.60189e-14 -2.16566e-15 0
rhumerus -47.0533 7.56174 -77.2275
rradius 88.5277 0 0
rwrist -4.84052 0 0
rhand 2.52955 -15.1041 0
rfingers 7.12502 0 0
rthumb 27.9449 -762.383 0
886
root 3.76333 16.4522 30.81 -6.35299 20.3139 359.863
lfemur -20.9518 18.244 -17.7195
ltibia 43.8375 0 0
lfoot -11.4756 -10.2986 0
ltoes 15.1059 0 0
rfemur -38.9843 -7.87054 1.08098
rtibia 71.9859 0 0
rfoot 6.39997 -14.1633 0
rtoes 23.3291 0 0
lowerback 7.28385 -1.91312 -3.79127
upperback 1.86576 -2.86496 -1.75569
thorax -2.03602 -1.4134 0.554442
lowerneck -6.78443 -5.39221 -0.247123
upperneck 5.86894 -7.50632 4.30358
head 3.32022 -3.55652 1.06697
lclavicle 1.57543e-14 -1.14104e-15 0
lhumerus -45.8743 -31.7356 98.9939
lradius 58.8538 0 0
lwrist 16.6389 0 0
lhand 21.5025 12.155 0
lfingers 7.12502 0 0
lthumb 45.7881 34.1812 0
rclavicle 1.57543e-14 -1.14104e-15 0
rhumerus -46.8862 7.99172 -78.662
rradius 90.7417 0 0
rwrist -5.19685 0 0
rhand 3.48859 -14.2262 0
rfingers 7.12502 0 0
rthumb 28.8622 -761.366 0
887
root 3.75044 16.4445 30.8996 -5.86166 20.4476 359.915
lfemur -21.414 18.9346 -17.6318
ltibia 44.3758 0 0
lfoot -11.8606 -9.37642 0
ltoes 14.6428 0 0
rfemur -37.8501 -8.26267 0.870857
rtibia 72.6323 0 0
rfoot 6.28095 -14.9397 0
rtoes 24.7771 0 0
lowerback 6.96954 -1.94178 -3.75821
upperback 1.73497 -2.89034 -1.79576
thorax -2.00045 -1.42572 0.488106
lowerneck -6.80534 -5.50623 -0.394648
upperneck 5.74161 -7.64487 4.36821
head 3.29242 -3.62856 1.10675
lclavicle 1.54942e-14 -1.33868e-16 0
lhumerus -46.3985 -32.3133 100.02
lradius 59.0498 0 0
lwrist 16.2924 0 0
lhand 22.3112 12.5934 0
lfingers 7.12502 0 0
lthumb 46.5415 34.3331 0
rclavicle 1.54942e-14 -1.33868e-16 0
rhumerus -46.722 8.41438 -80.0722
rradius 92.918 0 0
rwrist -5.54711 0 0
rhand 4.43129 -13.3632 0
rfingers 7.12502 0 0
rthumb 29.7639 -760.365 0
888
root 3.73784 16.437 30.9872 -5.38126 20.5784 359.967
lfemur -21.8658 19.6097 -17.5461
ltibia 44.902 0 0
lfoot -12.237 -8.47474 0
ltoes 14.1899 0 0
rfemur -36.7411 -8.64607 0.665412
rtibia 73.2644 0 0
rfoot 6.16458 -15.6988 0
rtoes 26.193 0 0
lowerback 6.66223 -1.96981 -3.72588
upperback 1.60709 -2.91516 -1.83492
thorax -1.96567 -1.43778 0.423246
lowerneck -6.82579 -5.61771 -0.538887
upperneck 5.61712 -7.78034 4.4314
head 3.26524 -3.69899 1.14565
lclavicle 1.52399e-14 8.50879e-16 0
lhumerus -46.911 -32.8782 101.023
lradius 59.2413 0 0
lwrist 15.9536 0 0
lhand 23.1019 13.0221 0
lfingers 7.12502 0 0
lthumb 47.2781 34.4816 0
rclavicle 1.52399e-14 8.50879e-16 0
rhumerus -46.5614 8.82763 -81.4509
rradius 95.0458 0 0
rwrist -5.88958 0 0
rhand 5.35301 -12.5195 0
rfingers 7.12502 0 0
rthumb 30.6455 -759.387 0
889
root 3.72559 16.4298 31.0723 -4.91423 20.7055 360.016
lfemur -22.3051 20.2661 -17.4627
ltibia 45.4136 0 0
lfoot -12.603 -7.59817 0
ltoes 13.7496 0 0
rfemur -35.663 -9.01879 0.465686
rtibia 73.8789 0 0
rfoot 6.05145 -16.4368 0
rtoes 27.5693 0 0
lowerback 6.36347 -1.99706 -3.69446
upperback 1.48277 -2.93929 -1.873
thorax -1.93186 -1.4495 0.360192
lowerneck -6.84567 -5.72609 -0.679112
upperneck 5.4961 -7.91205 4.49284
head 3.23882 -3.76747 1.18346
lclavicle 1.49927e-14 1.80822e-15 0
lhumerus -47.4093 -33.4273 101.998
lradius 59.4275 0 0
lwrist 15.6242 0 0
lhand 23.8706 13.4389 0
lfingers 7.12502 0 0
lthumb 47.9941 34.626 0
rclavicle 1.49927e-14 1.80822e-15 0
rhumerus -46.4054 9.22937 -82.7913
rradius 97.1145 0 0
rwrist -6.22251 0 0
rhand 6.24907 -11.6992 0
rfingers 7.12502 0 0
rthumb 31.5026 -758.436 0
890
root 3.71375 16.4227 31.1546 -4.46301 20.8283 360.065
lfemur -22.7296 20.9003 -17.3822
ltibia 45.9079 0 0
lfoot -12.9565 -6.75125 0
ltoes 13.3243 0 0
rfemur -34.6214 -9.3789 0.272718
rtibia 74.4726 0 0
rfoot 5.94214 -17.1499 0
rtoes 28.8992 0 0
lowerback 6.07482 -2.02338 -3.66409
upperback 1.36266 -2.96261 -1.90979
thorax -1.8992 -1.46082 0.299272
lowerneck -6.86488 -5.8308 -0.814592
upperneck 5.37917 -8.03929 4.55219
head 3.21329 -3.83362 1.22
lclavicle 1.47538e-14 2.73316e-15 0
lhumerus -47.8907 -33.9579 102.94
lradius 59.6074 0 0
lwrist 15.306 0 0
lhand 24.6132 13.8416 0
lfingers 7.12502 0 0
lthumb 48.686 34.7654 0
rclavicle 1.47538e-14 2.73316e-15 0
rhumerus -46.2546 9.61752 -84.0863
rradius 99.1131 0 0
rwrist -6.54418 0 0
rhand 7.1148 -10.9067 0
rfingers 7.12502 0 0
rthumb 32.3306 -757.518 0
891
root 3.70239 16.416 31.2335 -4.03003 20.9462 360.111
lfemur -23.1368 21.5088 -17.305
ltibia 46.3823 0 0
lfoot -13.2958 -5.93857 0
ltoes 12.9161 0 0
rfemur -33.6219 -9.72446 0.087549
rtibia 75.0423 0 0
rfoot 5.83726 -17.8341 0
rtoes 30.1752 0 0
lowerback 5.79784 -2.04864 -3.63496
upperback 1.2474 -2.98498 -1.94509
thorax -1.86786 -1.47168 0.240814
lowerneck -6.88331 -5.93128 -0.944596
upperneck 5.26697 -8.16139 4.60914
head 3.18879 -3.8971 1.25505
lclavicle 1.45246e-14 3.62072e-15 0
lhumerus -48.3526 -34.4671 103.844
lradius 59.7801 0 0
lwrist 15.0006 0 0
lhand 25.3259 14.228 0
lfingers 7.12502 0 0
lthumb 49.3499 34.8993 0
rclavicle 1.45246e-14 3.62072e-15 0
rhumerus -46.1098 9.98998 -85.329
rradius 101.031 0 0
rwrist -6.85284 0 0
rhand 7.94555 -10.1462 0
rfingers 7.12502 0 0
rthumb 33.1252 -756.636 0
892
root 3.69158 16.4096 31.3087 -3.61771 21.0584 360.155
lfemur -23.5247 22.0883 -17.2314
ltibia 46.8339 0 0
lfoot -13.6188 -5.16467 0
ltoes 12.5274 0 0
rfemur -32.6701 -10.0535 -0.0887818
rtibia 75.5848 0 0
rfoot 5.73738 -18.4856 0
rtoes 31.3904 0 0
lowerback 5.53408 -2.0727 -3.60721
upperback 1.13764 -3.00628 -1.97871
thorax -1.83801 -1.48202 0.185146
lowerneck -6.90086 -6.02697 -1.0684
upperneck 5.16012 -8.27767 4.66338
head 3.16546 -3.95755 1.28844
lclavicle 1.43063e-14 4.46591e-15 0
lhumerus -48.7925 -34.9519 104.704
lradius 59.9445 0 0
lwrist 14.7099 0 0
lhand 26.0045 14.596 0
lfingers 7.12502 0 0
lthumb 49.9821 35.0267 0
rclavicle 1.43063e-14 4.46591e-15 0
rhumerus -45.972 10.3447 -86.5123
rradius 102.857 0 0
rwrist -7.14678 0 0
rhand 8.73665 -9.42201 0
rfingers 7.12502 0 0
rthumb 33.8819 -755.797 0
893
root 3.68137 16.4035 31.3797 -3.22849 21.1644 360.196
lfemur -23.8908 22.6353 -17.1619
ltibia 47.2603 0 0
lfoot -13.9238 -4.43413 0
ltoes 12.1605 0 0
rfemur -31.7716 -10.3642 -0.255235
rtibia 76.0969 0 0
rfoot 5.64309 -19.1007 0
rtoes 32.5375 0 0
lowerback 5.2851 -2.09541 -3.58102
upperback 1.03404 -3.02639 -2.01045
thorax -1.80983 -1.49179 0.132596
lowerneck -6.91743 -6.11729 -1.18526
upperneck 5.05925 -8.38743 4.71458
head 3.14344 -4.01462 1.31995
lclavicle 1.41003e-14 5.26376e-15 0
lhumerus -49.2077 -35.4096 105.517
lradius 60.0997 0 0
lwrist 14.4354 0 0
lhand 26.6451 14.9433 0
lfingers 7.12502 0 0
lthumb 50.5789 35.1471 0
rclavicle 1.41003e-14 5.26376e-15 0
rhumerus -45.842 10.6795 -87.6294
rradius 104.581 0 0
rwrist -7.42425 0 0
rhand 9.48343 -8.73839 0
rfingers 7.12502 0 0
rthumb 34.5962 -755.004 0
894
root 3.67182 16.3978 31.446 -2.8648 21.2633 360.235
lfemur -24.2329 23.1464 -17.097
ltibia 47.6587 0 0
lfoot -14.2088 -3.7515 0
ltoes 11.8177 0 0
rfemur -30.9321 -10.6544 -0.41077
rtibia 76.5754 0 0
rfoot 5.55499 -19.6754 0
rtoes 33.6094 0 0
lowerback 5.05244 -2.11662 -3.55655
upperback 0.937222 -3.04518 -2.0401
thorax -1.7835 -1.50091 0.0834936
lowerneck -6.93291 -6.20169 -1.29446
upperneck 4.96501 -8.48999 4.76242
head 3.12287 -4.06794 1.3494
lclavicle 1.39077e-14 6.00928e-15 0
lhumerus -49.5957 -35.8372 106.276
lradius 60.2447 0 0
lwrist 14.1789 0 0
lhand 27.2437 15.2679 0
lfingers 7.12502 0 0
lthumb 51.1366 35.2595 0
rclavicle 1.39077e-14 6.00928e-15 0
rhumerus -45.7204 10.9923 -88.6732
rradius 106.192 0 0
rwrist -7.68351 0 0
rhand 10.1812 -8.0996 0
rfingers 7.12502 0 0
rthumb 35.2637 -754.264 0
895
root 3.66302 16.3926 31.5072 -2.52907 21.3547 360.271
lfemur -24.5487 23.6183 -17.0371
ltibia 48.0265 0 0
lfoot -14.4718 -3.12135 0
ltoes 11.5012 0 0
rfemur -30.157 -10.9224 -0.554347
rtibia 77.0171 0 0
rfoot 5.47367 -20.2059 0
rtoes 34.5988 0 0
lowerback 4.83768 -2.13621 -3.53396
upperback 0.847853 -3.06253 -2.06747
thorax -1.7592 -1.50934 0.0381659
lowerneck -6.9472 -6.2796 -1.39526
upperneck 4.87801 -8.58466 4.80658
head 3.10387 -4.11716 1.37659
lclavicle 1.373e-14 6.69748e-15 0
lhumerus -49.9539 -36.232 106.977
lradius 60.3786 0 0
lwrist 13.9421 0 0
lhand 27.7963 15.5675 0
lfingers 7.12502 0 0
lthumb 51.6513 35.3633 0
rclavicle 1.373e-14 6.69748e-15 0
rhumerus -45.6082 11.2811 -89.6368
rradius 107.679 0 0
rwrist -7.92285 0 0
rhand 10.8254 -7.50993 0
rfingers 7.12502 0 0
rthumb 35.8798 -753.58 0
